<?xml version="1.0" standalone="no"?>
<!DOCTYPE svg PUBLIC "-//W3C//DTD SVG 20010904//EN"
 "http://www.w3.org/TR/2001/REC-SVG-20010904/DTD/svg10.dtd">
<svg version="1.0" xmlns="http://www.w3.org/2000/svg"
 width="1000.000000pt" height="500.000000pt" viewBox="0 0 1000.000000 500.000000"
 preserveAspectRatio="xMidYMid meet">

<g transform="translate(0.000000,500.000000) scale(0.100000,-0.100000)"
fill="#000000" stroke="none">
<path d="M0 2500 l0 -2500 5000 0 5000 0 0 2500 0 2500 -5000 0 -5000 0 0
-2500z m6016 824 c43 -20 62 -70 42 -111 -17 -36 -73 -73 -110 -73 -114 0
-164 142 -65 185 43 19 92 18 133 -1z m-818 -178 l-3 -183 47 42 c110 99 275
81 355 -39 43 -63 56 -114 56 -211 -1 -112 -29 -183 -103 -256 -47 -47 -68
-61 -124 -78 -38 -12 -95 -21 -127 -21 -67 0 -192 23 -251 47 l-38 15 0 379 0
379 -50 25 c-39 20 -50 30 -50 50 0 26 1 26 223 33 l68 2 -3 -184z m2552 4 l0
-120 -40 0 c-24 0 -42 5 -45 13 -2 6 -11 38 -20 70 l-16 57 -155 0 -154 0 0
-135 0 -135 94 0 94 0 19 58 c18 52 22 57 51 60 l32 3 0 -171 0 -171 -32 3
c-29 3 -33 8 -51 61 l-19 57 -94 0 -95 0 3 -142 3 -143 55 -22 c45 -17 56 -26
58 -47 l3 -26 -211 0 -211 0 3 26 c2 20 13 30 43 43 22 9 46 20 53 24 9 6 12
86 12 332 0 246 -3 326 -12 332 -7 4 -31 15 -53 24 -30 13 -41 23 -43 43 l-3
26 365 0 366 0 0 -120z m-5020 -93 l65 -12 3 -93 3 -93 -42 3 c-38 3 -43 6
-54 38 -30 90 -220 118 -241 35 -15 -60 21 -90 153 -126 146 -40 192 -72 213
-149 17 -64 -4 -133 -57 -181 -89 -84 -252 -101 -455 -48 l-38 10 0 90 0 90
42 -3 c38 -3 43 -6 52 -37 25 -89 220 -131 271 -58 43 62 5 104 -131 141 -154
42 -205 79 -224 159 -38 172 172 284 440 234z m1230 -37 c0 -27 3 -50 6 -50 4
0 26 18 49 39 62 57 141 74 230 50 38 -11 97 -59 107 -89 4 -11 16 -4 52 28
26 24 63 50 81 58 68 28 171 13 225 -33 61 -51 65 -67 68 -301 l4 -212 39 -20
c29 -16 39 -26 39 -45 l0 -25 -175 0 -175 0 0 25 c0 19 10 29 41 45 l40 21 -3
195 -3 196 -28 24 c-44 38 -154 28 -177 -16 -6 -10 -10 -104 -10 -209 l0 -191
40 -20 c30 -16 40 -26 40 -45 l0 -25 -170 0 -170 0 0 25 c0 19 10 29 41 45
l40 21 -3 195 -3 196 -28 24 c-49 42 -170 22 -182 -30 -3 -11 -4 -102 -3 -201
l3 -180 38 -24 c25 -17 37 -32 37 -48 l0 -23 -180 0 -180 0 0 24 c0 19 10 27
50 44 l50 21 0 220 0 220 -50 22 c-39 17 -50 26 -50 45 0 20 6 23 53 29 28 3
81 10 117 14 108 14 100 17 100 -39z m2786 10 c111 -54 164 -150 164 -296 0
-140 -64 -246 -182 -300 -56 -26 -74 -29 -163 -29 -119 1 -178 22 -243 88 -65
67 -86 125 -87 237 0 88 3 101 33 162 62 126 166 181 330 174 69 -3 94 -9 148
-36z m-3498 3 c-2 -19 -11 -29 -35 -37 -17 -6 -34 -14 -38 -18 -4 -3 25 -77
63 -165 38 -87 72 -166 75 -175 4 -10 10 -18 14 -18 9 0 133 317 133 337 0 7
-18 22 -40 33 -30 16 -40 26 -40 45 l0 25 135 0 c135 0 135 0 135 -23 0 -16
-13 -33 -42 -54 -42 -30 -46 -38 -175 -365 -73 -184 -146 -355 -162 -380 -52
-81 -137 -116 -254 -104 -89 10 -90 10 -81 95 l7 73 31 -5 c17 -2 67 -10 110
-18 l79 -13 26 32 c14 17 33 49 42 71 l17 39 -36 54 c-20 29 -82 156 -138 282
-95 213 -105 231 -138 248 -27 14 -36 25 -36 43 l0 25 176 0 175 0 -3 -27z
m2804 -254 l3 -271 53 -20 c43 -16 52 -24 52 -44 l0 -24 -205 0 -205 0 0 24
c0 20 9 28 53 44 l52 20 3 220 2 220 -55 22 c-45 18 -55 27 -55 46 0 25 5 26
227 32 l73 2 2 -271z m-1894 -751 c20 -20 14 -48 -14 -60 -29 -14 -57 -2 -62
26 -8 37 48 62 76 34z m1580 0 c20 -20 14 -48 -14 -60 -29 -14 -57 -2 -62 26
-8 37 48 62 76 34z m-1178 -69 l0 -70 26 20 c37 29 89 27 119 -4 23 -22 25
-32 25 -113 0 -71 3 -91 15 -96 37 -14 11 -26 -55 -26 -70 0 -87 10 -50 30 17
9 20 21 20 78 0 84 -13 105 -60 100 l-35 -3 -3 -83 c-2 -67 0 -83 13 -88 8 -3
15 -12 15 -20 0 -11 -17 -14 -70 -14 -68 0 -91 12 -50 25 19 6 20 15 20 150 0
134 -1 145 -20 155 -35 19 -22 30 35 30 l55 0 0 -71z m680 0 l0 -70 26 20 c37
29 77 27 115 -7 27 -24 33 -37 36 -83 9 -120 -81 -184 -209 -148 l-38 10 0
152 c0 141 -1 153 -20 165 -34 21 -22 32 35 32 l55 0 0 -71z m-900 1 l0 -40
45 0 c38 0 45 -3 45 -20 0 -17 -7 -20 -45 -20 l-45 0 0 -80 c0 -86 9 -100 64
-100 14 0 26 -5 26 -10 0 -17 -52 -32 -93 -27 -62 8 -67 18 -67 123 0 87 -1
94 -20 94 -25 0 -26 26 -1 40 11 5 22 23 26 39 6 27 18 37 53 40 8 1 12 -13
12 -39z m-353 -40 c27 0 34 -4 31 -17 -2 -13 -11 -17 -31 -15 -26 3 -28 2 -18
-17 16 -30 14 -47 -12 -77 -19 -22 -34 -28 -88 -33 -47 -4 -64 -10 -64 -21 0
-12 18 -16 78 -21 107 -9 145 -45 113 -108 -39 -74 -240 -82 -259 -10 -6 23
19 59 40 59 14 0 13 4 -5 20 -12 12 -22 29 -22 40 0 19 25 50 40 50 5 0 -2 11
-15 25 -67 66 1 141 119 130 32 -3 74 -5 93 -5z m913 -87 c0 -54 4 -104 9
-111 5 -8 22 -12 42 -10 l34 3 3 87 c3 79 1 87 -18 93 -23 7 -27 25 -6 25 7 0
34 3 60 6 l46 7 0 -113 c0 -96 3 -115 17 -126 23 -16 18 -20 -39 -28 -44 -7
-48 -5 -48 13 l0 21 -32 -20 c-45 -27 -84 -25 -113 5 -23 22 -25 32 -25 109 0
75 -2 87 -20 96 -40 21 -21 32 68 38 21 2 22 -1 22 -95z m1153 59 c41 -41 49
-120 17 -170 -37 -60 -126 -79 -188 -42 -61 37 -79 133 -37 196 40 62 153 71
208 16z m-1893 -77 c0 -103 1 -106 25 -117 44 -20 27 -28 -55 -28 -51 0 -80 4
-80 11 0 6 9 13 20 16 18 5 20 14 20 94 0 78 -2 90 -20 99 -35 19 -22 30 35
30 l55 0 0 -105z m1580 0 c0 -103 1 -106 25 -117 44 -20 27 -28 -55 -28 -51 0
-80 4 -80 11 0 6 9 13 20 16 18 5 20 14 20 94 0 78 -2 90 -20 99 -35 19 -22
30 35 30 l55 0 0 -105z m-2072 -77 c28 -28 7 -78 -33 -78 -27 0 -45 18 -45 45
0 27 18 45 45 45 12 0 26 -5 33 -12z m1890 0 c28 -28 7 -78 -33 -78 -27 0 -45
18 -45 45 0 27 18 45 45 45 12 0 26 -5 33 -12z"/>
<path d="M5260 2949 c-60 -25 -60 -25 -60 -234 l0 -193 34 -16 c19 -9 55 -16
80 -16 99 0 152 95 144 260 -4 94 -25 150 -70 183 -30 22 -94 31 -128 16z"/>
<path d="M6502 2964 c-12 -8 -32 -34 -44 -57 -20 -36 -23 -58 -23 -157 0 -181
43 -260 142 -260 38 0 50 5 78 33 42 42 57 98 57 209 0 105 -21 176 -64 218
-24 25 -38 30 -77 30 -26 0 -56 -7 -69 -16z"/>
<path d="M5252 1878 c-7 -7 -12 -44 -12 -94 0 -65 3 -83 16 -88 27 -10 43 -7
64 14 25 25 28 124 4 158 -17 24 -53 29 -72 10z"/>
<path d="M3834 1887 c-3 -8 -4 -32 -2 -53 3 -36 5 -39 33 -39 29 0 30 1 30 50
0 47 -2 50 -28 53 -17 2 -29 -2 -33 -11z"/>
<path d="M3817 1654 c-12 -12 -8 -51 7 -63 21 -18 97 -10 110 12 19 30 -4 52
-60 55 -28 2 -53 0 -57 -4z"/>
<path d="M5925 1886 c-14 -10 -20 -30 -23 -77 -3 -54 -1 -68 18 -91 49 -63 95
-17 88 88 -4 65 -20 94 -53 94 -6 0 -20 -6 -30 -14z"/>
</g>
</svg>
